<?xml version="1.0" encoding="utf-8"?>
<!-- Generator: Adobe Illustrator 20.1.0, SVG Export Plug-In . SVG Version: 6.00 Build 0)  -->
<svg version="1.1" id="Layer_1" xmlns="http://www.w3.org/2000/svg" xmlns:xlink="http://www.w3.org/1999/xlink" x="0px" y="0px"
	 viewBox="0 0 1044.1 522.9" enable-background="new 0 0 1044.1 522.9" xml:space="preserve">
<title>Showit Design Partner Logo White</title>
<g id="Layer_2">
	<g id="Icon">
		<path fill="#FFFFFF" d="M1014.9,86.3H475c3.5,4.3,6.9,8.7,10.2,13.2h529.7c8.8,0,16,7.2,16,16v291.8c0,8.8-7.2,16-16,16H485.2
			c-3.3,4.5-6.7,8.9-10.2,13.2h539.9c16.1,0,29.2-13.1,29.2-29.2V115.6C1044.1,99.4,1031,86.4,1014.9,86.3z"/>
		<path fill="#FFFFFF" d="M261.5,0C117.1,0,0,117.1,0,261.5s117.1,261.5,261.5,261.5s261.5-117.1,261.5-261.5S405.9,0,261.5,0z
			 M344.2,281.2c-0.5,21.8-8.2,43.9-21.7,62.3s-31.7,31.7-50.1,36.4L272,380H97.3l-0.2-3.5c-1-19.8,7.1-42.5,22.1-62.4
			c14.3-18.9,32.9-32.6,49.9-36.6l0.4-0.1h174.8L344.2,281.2z M425.8,146.7c-0.5,21.8-8.2,43.9-21.7,62.3s-31.7,31.7-50.1,36.4
			l-0.5,0.1H178.9l-0.2-3.6c-1-19.8,7.1-42.5,22.1-62.4c14.3-18.9,32.9-32.6,49.9-36.6l0.4-0.1h174.8L425.8,146.7z"/>
		<path fill="#FFFFFF" d="M583.9,242.4v-99h22.2c7.3,0,12.5,2.1,15.8,6.4s4.9,10.6,4.9,19l0.1,44.6c0,10-1.7,17.3-5,21.9
			c-3.3,4.6-8.8,7-16.4,7L583.9,242.4z M599,230.7h5c2.8,0,4.8-0.9,6-2.7s1.9-5.1,1.9-9.9l-0.1-48.9c0-5.1-0.6-8.8-1.9-11
			c-1.3-2.2-3.4-3.3-6.5-3.3H599V230.7z"/>
		<path fill="#FFFFFF" d="M646.3,242.4v-99h33.2v13h-18.1v28.8h17.2V198h-17.2v31.5h18.8v13L646.3,242.4z"/>
		<path fill="#FFFFFF" d="M696,214.6v-8.8h14.3v10c0,5.5,0.5,9.4,1.4,11.6c0.8,2.2,3,3.5,5.3,3.4c2.6,0,4.3-0.9,5.1-2.8
			c0.8-1.8,1.3-4.8,1.3-9c0.1-3.8-0.7-7.5-2.3-11c-1.9-3.6-4.3-6.9-7.1-9.7l-7.3-7.5c-3.2-3.3-5.9-7-8-11.1c-2-4.1-2.9-8.7-2.8-13.3
			c0-8.2,1.6-14.2,4.7-18.2c3.1-4,8.6-6,16.2-6c7.7,0,12.9,2.3,15.6,6.9s4.1,11.4,4.1,20.3v6.1h-13.8v-7.1c0-4.8-0.4-8.2-1.2-10.3
			c-0.7-2-2.6-3.3-4.8-3.1c-2.3,0-4,0.8-5.1,2.4s-1.6,4-1.6,7.2c-0.1,2.6,0.4,5.2,1.6,7.5c1.6,2.6,3.5,5,5.7,7.2l8.2,8.8
			c3.8,4,6.9,8.5,9.2,13.4c2.1,4.7,3.2,9.7,3.1,14.9c0,9.3-1.6,16.1-4.7,20.5c-3.1,4.4-8.6,6.6-16.3,6.6s-13.2-2.5-16.2-7.4
			C697.5,231.2,696,224.1,696,214.6z"/>
		<path fill="#FFFFFF" d="M755.1,242.4v-99h15.1v99H755.1z"/>
		<path fill="#FFFFFF" d="M810,243.4c-5.8,0.2-11.3-2.6-14.6-7.3c-3.5-4.9-5.3-12.4-5.3-22.6v-43c0-9.1,1.8-16.1,5.4-20.9
			c3.6-4.8,9.3-7.2,17.1-7.2c9.7,0,15.9,3.6,18.5,10.9c1.6,4.3,2.4,10.3,2.4,17.8v7h-14.1v-10.3c0-4.5-0.5-7.7-1.4-9.6
			c-1-1.8-2.8-2.8-5.4-2.8c-2.4-0.2-4.6,1.1-5.6,3.3c-1.1,2.2-1.6,6.1-1.6,11.7v42.9c0,6.5,0.5,11,1.5,13.6c0.8,2.4,3.2,4,5.7,3.8
			c2.7,0.1,5.1-1.6,6-4.1c1.2-2.7,1.8-7.3,1.8-13.8v-13.3h-7.6v-11h20.8v54h-6.8l-2.3-9.7c-0.7,3.2-2.5,6-5.2,7.9
			C816.5,242.4,813.3,243.5,810,243.4z"/>
		<path fill="#FFFFFF" d="M853.4,242.4v-99h11.8l21,59.4l-1.1-27v-32.4h13.5v99H888L866.4,181l0.8,26v35.5L853.4,242.4z"/>
		<path fill="#FFFFFF" d="M584,380.6v-99h22.7c7.7,0,12.9,2.3,15.8,7s4.3,11.6,4.5,20.9v2.1c0,9.8-1.4,17.3-4.2,22.4
			s-8,7.6-15.5,7.6h-8.2v39L584,380.6z M599.1,329.2h5.2c3.2,0,5.3-1.2,6.2-3.7c1-2.5,1.4-7.1,1.4-14v-1.9c0-5.8-0.6-10-1.5-12.5
			c-1-2.5-3-3.8-6-3.8H599L599.1,329.2z"/>
		<path fill="#FFFFFF" d="M636.7,380.6l14.1-99h19.9l15,99h-14l-2.4-17.6h-16l-2.1,17.7L636.7,380.6z M667.7,350.9l-6.6-49.7h-0.2
			l-6.1,49.7H667.7z"/>
		<path fill="#FFFFFF" d="M721.8,334.1l-4.8-0.2v46.7h-15.1v-99h24.9c5.2,0,9,1,11.6,3.1c2.6,2.2,4.4,5.3,5,8.7
			c0.9,4.8,1.3,9.7,1.2,14.6c0,6-0.6,10.6-1.9,13.8c-1.2,3.1-3.9,5.5-7.1,6.4c3.4,0.6,5.8,2.9,7.1,6.9c1.3,4,2,12.4,2,25
			c0,12.7,0.2,19.5,0.6,20.4h-15c-0.4-0.7-0.6-12.6-0.6-35.5c0-4.4-0.5-7.3-1.6-8.7S725,334.2,721.8,334.1z M717,322.2h6
			c1.5,0.1,3.1-0.3,4.2-1.3c1.1-1.2,1.8-2.8,1.9-4.4c0.4-3.2,0.6-6.4,0.5-9.6v-0.6c0-5.3-0.5-8.8-1.3-10.5c-0.9-1.7-3-2.5-6.2-2.5
			H717V322.2z"/>
		<path fill="#FFFFFF" d="M769.5,380.6v-85.9h-11.6v-13h37.7v13h-11.1v85.9L769.5,380.6z"/>
		<path fill="#FFFFFF" d="M809.7,380.6v-99h11.8l21,59.4l-1.1-27v-32.4H855v99h-10.7l-21.5-61.5l0.8,26v35.5L809.7,380.6z"/>
		<path fill="#FFFFFF" d="M875.6,380.6v-99h33.2v13h-18.1v28.8h17.2v12.7h-17.2v31.5h18.8v13L875.6,380.6z"/>
		<path fill="#FFFFFF" d="M947.1,334.1l-4.8-0.2v46.7h-15.1v-99h24.9c5.2,0,9,1,11.6,3.1c2.6,2.2,4.4,5.3,5,8.7
			c0.9,4.8,1.4,9.7,1.3,14.6c0,6-0.6,10.6-1.9,13.8c-1.2,3.1-3.9,5.5-7.1,6.4c3.4,0.6,5.8,2.9,7.1,6.9c1.3,4,2,12.4,2,25
			c0,12.7,0.2,19.5,0.6,20.4h-15.1c-0.4-0.7-0.6-12.6-0.6-35.5c0-4.4-0.5-7.3-1.6-8.7S950.3,334.2,947.1,334.1z M942.3,322.2h6
			c1.5,0.1,3.1-0.3,4.2-1.3c1.1-1.2,1.8-2.8,1.9-4.4c0.4-3.2,0.6-6.4,0.5-9.6v-0.6c0-5.3-0.4-8.8-1.3-10.5c-0.9-1.7-3-2.5-6.2-2.5
			h-5.1L942.3,322.2z"/>
	</g>
</g>
</svg>
